<svg width="35" height="36" viewBox="0 0 35 36" fill="none" xmlns="http://www.w3.org/2000/svg">
<path fill-rule="evenodd" clip-rule="evenodd" d="M4 32C7.39 31.03 14.11 32.43 17.5 30C20.89 32.43 27.61 31.03 31 32C31 32 32.65 32.54 34 34C33.32 34.97 32.35 34.99 31 34.5C27.61 33.53 20.89 34.96 17.5 33.5C14.11 34.96 7.39 33.53 4 34.5C2.646 34.99 1.677 34.97 1 34C2.354 32.06 4 32 4 32Z" fill="black" stroke="black" stroke-width="1.5" stroke-linejoin="round"/>
<path fill-rule="evenodd" clip-rule="evenodd" d="M10 28C12.5 30.5 22.5 30.5 25 28C25.5 26.5 25 26 25 26C25 23.5 22.5 22 22.5 22C28 20.5 28.5 10.5 17.5 6.5C6.50002 10.5 7.00002 20.5 12.5 22C12.5 22 10 23.5 10 26C10 26 9.50002 26.5 10 28Z" fill="black" stroke="black" stroke-width="1.5" stroke-linejoin="round"/>
<path fill-rule="evenodd" clip-rule="evenodd" d="M20 4C20 4.66304 19.7366 5.29893 19.2678 5.76777C18.7989 6.23661 18.163 6.5 17.5 6.5C16.837 6.5 16.2011 6.23661 15.7322 5.76777C15.2634 5.29893 15 4.66304 15 4C15 3.33696 15.2634 2.70107 15.7322 2.23223C16.2011 1.76339 16.837 1.5 17.5 1.5C18.163 1.5 18.7989 1.76339 19.2678 2.23223C19.7366 2.70107 20 3.33696 20 4V4Z" fill="black" stroke="black" stroke-width="1.5" stroke-linejoin="round"/>
<path d="M15 14H20M12.5 22H22.5H12.5ZM10 26H25H10ZM17.5 11.5V16.5V11.5Z" stroke="white" stroke-width="1.5" stroke-linecap="round"/>
</svg>
