<svg width="35" height="36" viewBox="0 0 35 36" fill="none" xmlns="http://www.w3.org/2000/svg">
<path d="M17.5 6.63V1" stroke="black" stroke-width="1.5" stroke-linecap="round"/>
<path fill-rule="evenodd" clip-rule="evenodd" d="M17.5001 20C17.5001 20 22.0001 12.5 20.5001 9.5C20.5001 9.5 19.5001 7 17.5001 7C15.5001 7 14.5001 9.5 14.5001 9.5C13.0001 12.5 17.5001 20 17.5001 20Z" fill="black" stroke="black" stroke-width="1.5"/>
<path fill-rule="evenodd" clip-rule="evenodd" d="M6.50003 32.0001C12 35.5001 22 35.5001 27.5 32.0001V25.0001C27.5 25.0001 36.5 20.5001 33.5 14.5001C29.5 8.00011 20 11.0001 17.5 18.5001V22.0001V18.5001C14 11.0001 4.50003 8.00011 1.50003 14.5001C-1.49997 20.5001 6.50003 24.5001 6.50003 24.5001V32.0001Z" fill="black" stroke="black" stroke-width="1.5" stroke-linecap="round" stroke-linejoin="round"/>
<path d="M15 3H20" stroke="black" stroke-width="1.5" stroke-linecap="round"/>
<path d="M27 24.5002C27 24.5002 35.5 20.5002 33.03 14.8502C29.15 9.00016 20 13.0002 17.5 19.5002L17.51 21.6002L17.5 19.5002C15 13.0002 4.90602 9.00016 1.99702 14.8502C-0.499984 20.5002 6.85002 23.8502 6.85002 23.8502" stroke="white" stroke-width="1.5" stroke-linecap="round" stroke-linejoin="round"/>
<path d="M6.5 25C12 22 22 22 27.5 25M6.5 28.5C12 25.5 22 25.5 27.5 28.5M6.5 32C12 29 22 29 27.5 32" stroke="white" stroke-width="1.5" stroke-linecap="round" stroke-linejoin="round"/>
</svg>
