<svg width="39" height="36" viewBox="0 0 39 36" fill="none" xmlns="http://www.w3.org/2000/svg">
<path fill-rule="evenodd" clip-rule="evenodd" d="M5 8C5 8.53043 4.78929 9.03914 4.41421 9.41421C4.03914 9.78929 3.53043 10 3 10C2.46957 10 1.96086 9.78929 1.58579 9.41421C1.21071 9.03914 1 8.53043 1 8C1 7.46957 1.21071 6.96086 1.58579 6.58579C1.96086 6.21071 2.46957 6 3 6C3.53043 6 4.03914 6.21071 4.41421 6.58579C4.78929 6.96086 5 7.46957 5 8V8Z" fill="white" stroke="black" stroke-width="1.5" stroke-linecap="round" stroke-linejoin="round"/>
<path fill-rule="evenodd" clip-rule="evenodd" d="M21.5 3.5C21.5 4.03043 21.2893 4.53914 20.9142 4.91421C20.5391 5.28929 20.0304 5.5 19.5 5.5C18.9696 5.5 18.4609 5.28929 18.0858 4.91421C17.7107 4.53914 17.5 4.03043 17.5 3.5C17.5 2.96957 17.7107 2.46086 18.0858 2.08579C18.4609 1.71071 18.9696 1.5 19.5 1.5C20.0304 1.5 20.5391 1.71071 20.9142 2.08579C21.2893 2.46086 21.5 2.96957 21.5 3.5V3.5Z" fill="white" stroke="black" stroke-width="1.5" stroke-linecap="round" stroke-linejoin="round"/>
<path fill-rule="evenodd" clip-rule="evenodd" d="M38 8C38 8.53043 37.7893 9.03914 37.4142 9.41421C37.0391 9.78929 36.5304 10 36 10C35.4696 10 34.9609 9.78929 34.5858 9.41421C34.2107 9.03914 34 8.53043 34 8C34 7.46957 34.2107 6.96086 34.5858 6.58579C34.9609 6.21071 35.4696 6 36 6C36.5304 6 37.0391 6.21071 37.4142 6.58579C37.7893 6.96086 38 7.46957 38 8V8Z" fill="white" stroke="black" stroke-width="1.5" stroke-linecap="round" stroke-linejoin="round"/>
<path fill-rule="evenodd" clip-rule="evenodd" d="M13 4.5C13 5.03043 12.7893 5.53914 12.4142 5.91421C12.0391 6.28929 11.5304 6.5 11 6.5C10.4696 6.5 9.96086 6.28929 9.58579 5.91421C9.21071 5.53914 9 5.03043 9 4.5C9 3.96957 9.21071 3.46086 9.58579 3.08579C9.96086 2.71071 10.4696 2.5 11 2.5C11.5304 2.5 12.0391 2.71071 12.4142 3.08579C12.7893 3.46086 13 3.96957 13 4.5V4.5Z" fill="white" stroke="black" stroke-width="1.5" stroke-linecap="round" stroke-linejoin="round"/>
<path fill-rule="evenodd" clip-rule="evenodd" d="M30 5C30 5.53043 29.7893 6.03914 29.4142 6.41421C29.0391 6.78929 28.5304 7 28 7C27.4696 7 26.9609 6.78929 26.5858 6.41421C26.2107 6.03914 26 5.53043 26 5C26 4.46957 26.2107 3.96086 26.5858 3.58579C26.9609 3.21071 27.4696 3 28 3C28.5304 3 29.0391 3.21071 29.4142 3.58579C29.7893 3.96086 30 4.46957 30 5V5Z" fill="white" stroke="black" stroke-width="1.5" stroke-linecap="round" stroke-linejoin="round"/>
<path fill-rule="evenodd" clip-rule="evenodd" d="M6 22C14.5 20.5 27 20.5 33 22L35 10L28 21V7L22.5 20.5L19.5 5.5L16.5 20.5L11 6.5V21L4 10L6 22Z" fill="white" stroke="black" stroke-width="1.5" stroke-linejoin="round"/>
<path fill-rule="evenodd" clip-rule="evenodd" d="M6 22C6 24 7.5 24 8.5 26C9.5 27.5 9.5 27 9 29.5C7.5 30.5 7.5 32 7.5 32C6 33.5 8 34.5 8 34.5C14.5 35.5 24.5 35.5 31 34.5C31 34.5 32.5 33.5 31 32C31 32 31.5 30.5 30 29.5C29.5 27 29.5 27.5 30.5 26C31.5 24 33 24 33 22C24.5 20.5 14.5 20.5 6 22Z" fill="white" stroke="black" stroke-width="1.5" stroke-linejoin="round"/>
<path d="M8.5 26C12 25 27 25 30.5 26" stroke="black" stroke-width="1.5" stroke-linecap="round" stroke-linejoin="round"/>
<path d="M9 29.5C15 28.5 24 28.5 30 29.5" stroke="black" stroke-width="1.5" stroke-linecap="round" stroke-linejoin="round"/>
</svg>
